#format: frame checksums
#version: 2
#hash: MD5
#tb 0: 1/30
#media_type 0: video
#codec_id 0: rawvideo
#dimensions 0: 320x240
#sar 0: 1/1
#stream#, dts,        pts, duration,     size, hash
0,          0,          0,        1,   115200, 1e55263b359b4c99c3463655a1120f11
0,          1,          1,        1,   115200, ce33efea81064e7c23deb57dc4c21995
0,          2,          2,        1,   115200, 42234f25d6191ab13c3676a7937c921b
0,          3,          3,        1,   115200, eab2ccb227c66cba4c9feb8cdbf28ef8
0,          4,          4,        1,   115200, c8816e0b151b2c892163e35086918520
0,          5,          5,        1,   115200, c633f5604c8651165d551ee88fb4cd92
0,          6,          6,        1,   115200, 5f3f8530d720fef3ac4c937e7f488ea7
0,          7,          7,        1,   115200, be24a583909ca92008b642f39be02685
0,          8,          8,        1,   115200, 83872a6e5c3369fe76f684de31bd9a36
0,          9,          9,        1,   115200, 4629d6eb656883b337e8e0b381f2db8d
0,         10,         10,        1,   115200, f6bec55bc026440d23a44b948900e785
0,         11,         11,        1,   115200, 7e12e8113916305c79e5d08354acc9ae
0,         12,         12,        1,   115200, d315c0093536642d340ea50de3b2bfbb
0,         13,         13,        1,   115200, 3d12b24aaed72bfada4a1a3e5e02945a
0,         14,         14,        1,   115200, 070d6b8935c11304d8f9520c4401a130
